# xmcd CD database file
#
# Track frame offsets:
#	150
#	33760
#	48750
#	75540
#	94319
#	118166
#	131213
#	155230
#	182089
#
# Disc length: 2556 seconds
#
# Revision: 0
# Processed by: cddbd v1.5.2PL0 Copyright (c) Steve Scherf et al.
# Submitted via: CDex 1.51
#
DISCID=7409fa09
DTITLE=Polar Bear - Held on the Tips of Fingers
DYEAR=2005
DGENRE=Jazz
TTITLE0=Was Dreaming You Called You Dissapeared I Slept
TTITLE1=Beartown
TTITLE2=Fluffy (I Want You)
TTITLE3=To Touch the Red Brick
TTITLE4=Hold on the Tips of Fingers
TTITLE5=Argumentative
TTITLE6=The King of Aberdeen
TTITLE7=Your Eyes The Sea
TTITLE8=Life That Ends Too Soon
EXTD=YEAR: 2005
EXTT0=
EXTT1=
EXTT2=
EXTT3=
EXTT4=
EXTT5=
EXTT6=
EXTT7=
EXTT8=
PLAYORDER=
